<svg id="レイヤー_1" data-name="レイヤー 1" xmlns="http://www.w3.org/2000/svg" width="144.99" height="22.83" viewBox="0 0 144.99 22.83"><defs><style>.cls-1{fill:#2fa1ad;}</style></defs><path class="cls-1" d="M211.72,258.67h8.43V281h-8.43Zm5.08,13.63,17.93-13.63h10.62l-27.47,19.1Zm7.44-2.59,7.26-2.29L247.22,281h-10Z" transform="translate(-211.72 -258.44)"/><path class="cls-1" d="M264.94,258.67h5.35L287.4,281h-9.08l-10.7-15.27L256.91,281h-9.07Zm-8.89,16.22h23.53V279H256.05Z" transform="translate(-211.72 -258.44)"/><path class="cls-1" d="M320.24,268.53v4.37a5.88,5.88,0,0,1-2,4.39,13.64,13.64,0,0,1-5.71,2.93,31.37,31.37,0,0,1-8.55,1,34.36,34.36,0,0,1-8.63-1,14.23,14.23,0,0,1-5.78-2.77,5.31,5.31,0,0,1-2.05-4.13v-6.6a5.82,5.82,0,0,1,2-4.38,13.54,13.54,0,0,1,5.7-2.94,31.79,31.79,0,0,1,8.55-1,31.21,31.21,0,0,1,7.39.82,17.83,17.83,0,0,1,5.64,2.33,7.72,7.72,0,0,1,3.06,3.49h-9.1a3.67,3.67,0,0,0-1.53-1.22,9.85,9.85,0,0,0-2.49-.79,16.83,16.83,0,0,0-3-.26,14.27,14.27,0,0,0-3.95.49,6.22,6.22,0,0,0-2.65,1.4,2.83,2.83,0,0,0-.93,2.09v6.6a2.34,2.34,0,0,0,.95,1.84,6.51,6.51,0,0,0,2.71,1.23,17,17,0,0,0,4.06.43,14.78,14.78,0,0,0,4-.47,5.88,5.88,0,0,0,2.63-1.36,2.79,2.79,0,0,0,.92-2.1v-.37h-6.76v-4.06Z" transform="translate(-211.72 -258.44)"/><path class="cls-1" d="M331.52,280.29a12.48,12.48,0,0,1-5.57-2.85,6.08,6.08,0,0,1-1.9-4.5V258.67h8.43v14.38a3.25,3.25,0,0,0,2.06,3,12.87,12.87,0,0,0,5.81,1.06,13.08,13.08,0,0,0,5.86-1.06,3.26,3.26,0,0,0,2.08-3V258.67h8.43v14.27a6.08,6.08,0,0,1-1.93,4.5,12.57,12.57,0,0,1-5.59,2.85,40.77,40.77,0,0,1-17.68,0Z" transform="translate(-211.72 -258.44)"/></svg>